<?xml version="1.0" standalone="no"?>
<!DOCTYPE svg PUBLIC "-//W3C//DTD SVG 20010904//EN"
 "http://www.w3.org/TR/2001/REC-SVG-20010904/DTD/svg10.dtd">
<svg version="1.0" xmlns="http://www.w3.org/2000/svg"
 width="255.000000pt" height="251.000000pt" viewBox="0 0 255.000000 251.000000"
 preserveAspectRatio="xMidYMid meet">
<metadata>
Created by potrace 1.15, written by Peter Selinger 2001-2017
</metadata>
<g transform="translate(0.000000,251.000000) scale(0.100000,-0.100000)"
fill="#000000" stroke="none">
<path d="M1199 2380 c-465 -43 -865 -373 -993 -821 -168 -590 148 -1198 728
-1399 480 -167 1028 16 1311 436 299 444 262 1006 -94 1412 -225 258 -600 404
-952 372z m-251 -722 c23 -16 49 -43 59 -60 24 -47 22 -126 -4 -171 -21 -35
-21 -37 -4 -47 29 -15 51 -73 51 -133 0 -68 -27 -111 -90 -144 -43 -22 -54
-23 -230 -20 l-185 2 -3 43 c-5 70 -1 72 182 72 172 0 206 8 206 50 0 65 -26
74 -220 80 l-165 5 0 50 0 50 156 5 c136 4 160 8 178 24 25 23 27 63 4 88 -14
16 -34 18 -168 18 -104 0 -155 4 -163 12 -13 13 -17 90 -5 102 4 4 87 6 184 4
172 -3 176 -3 217 -30z m691 14 c37 -69 241 -568 237 -579 -4 -10 -63 -13
-307 -13 l-302 0 6 36 c3 20 13 47 22 60 15 24 16 24 211 24 183 0 196 1 190
18 -33 91 -122 290 -127 284 -4 -4 -31 -64 -60 -134 l-53 -128 -57 0 c-40 0
-58 4 -62 14 -3 8 30 99 75 203 44 103 84 198 89 211 7 19 16 22 68 22 48 0
62 -4 70 -18z m429 -276 c2 -205 -1 -293 -9 -302 -6 -8 -26 -14 -44 -14 -69 0
-65 -18 -65 304 0 161 3 296 7 300 4 4 30 6 58 4 l50 -3 3 -289z"/>
</g>
</svg>
